<?xml version="1.0" encoding="UTF-8"?>
<svg id="Layer_1" xmlns="http://www.w3.org/2000/svg" version="1.1" xmlns:xlink="http://www.w3.org/1999/xlink" viewBox="0 0 98.04 98.04">
  <!-- Generator: Adobe Illustrator 30.0.0, SVG Export Plug-In . SVG Version: 2.1.1 Build 123)  -->
  <defs>
    <style>
      .st0 {
        fill: #6e5aa6;
        fill-opacity: .5;
        fill-rule: evenodd;
      }

      .st1 {
        fill: #0f1218;
      }

      .st2 {
        fill: none;
      }

      .st3 {
        clip-path: url(#clippath);
      }
    </style>
    <clipPath id="clippath">
      <path class="st2" d="M28.13,21.07h42.01c3.87,0,7.01,3.13,7.01,6.99v41.9c0,3.86-3.14,6.99-7.01,6.99H28.13c-3.87,0-7.01-3.13-7.01-6.99V28.06c0-3.86,3.14-6.99,7.01-6.99Z"/>
    </clipPath>
  </defs>
  <ellipse class="st1" cx="49.14" cy="49.01" rx="49.14" ry="49.01"/>
  <g class="st3">
    <path class="st0" d="M21.78,28.71c0-3.85,3.13-6.99,7.01-6.99h40.71c3.86,0,7.01,3.12,7.01,6.99v40.6c0,3.85-3.13,6.99-7.01,6.99H28.79c-3.86,0-7.01-3.12-7.01-6.99V28.71ZM36.18,67.33h0c1.22,2.57,3.6,4.69,7.72,4.69,4.55,0,7.67-2.42,7.67-7.73v-14.95c0-1.41-1.15-2.57-2.57-2.57h0c-1.42,0-2.57,1.15-2.57,2.57v14.87c0,2.57-1.07,3.22-2.75,3.22h0c-2.46,0-5.05-1.58-7.14-.32l-.35.21h0ZM60.09,66.25c-1.04-.89-2.5-1.34-3.67-.67h0c-1.15.67-1.62,2.15-.73,3.15,1.73,1.95,4.38,3.27,8.03,3.27,4.88,0,8.52-2.52,8.52-7.15,0-4.29-2.46-6.19-6.83-8.05l-1.28-.55c-2.2-.95-3.15-1.57-3.15-3.11,0-1.25.95-2.2,2.46-2.2.62,0,1.16.12,1.63.37,1.21.64,2.64,1.21,3.79.48h0c1.06-.68,1.43-2.1.57-3.01-1.53-1.64-3.5-2.3-6-2.3-4.59,0-7.53,2.93-7.53,6.78,0,4.18,2.46,6.15,6.17,7.73l1.28.55c2.35,1.02,3.75,1.65,3.75,3.41,0,1.47-1.35,2.52-3.49,2.52-1.51,0-2.62-.46-3.51-1.22h0Z"/>
  </g>
</svg>