<?xml version="1.0" encoding="UTF-8"?>
<svg id="Layer_1" xmlns="http://www.w3.org/2000/svg" version="1.1" viewBox="0 0 98.04 98.04">
  <!-- Generator: Adobe Illustrator 30.0.0, SVG Export Plug-In . SVG Version: 2.1.1 Build 123)  -->
  <defs>
    <style>
      .st0 {
        fill: none;
      }

      .st1 {
        fill: #0f1218;
      }

      .st2 {
        fill-opacity: .5;
      }

      .st2, .st3 {
        fill: #6e5aa6;
        fill-rule: evenodd;
      }

      .st4 {
        opacity: .5;
      }
    </style>
  </defs>
  <ellipse class="st1" cx="49.02" cy="49.02" rx="49.91" ry="49.02"/>
  <rect class="st0" x="19.9" y="20.81" width="58.24" height="56.42"/>
  <g>
    <g class="st4">
      <path class="st3" d="M35.31,27.73s-.9-6.05,13.5-6.05c15.05,0,13.89,7.29,13.89,7.29v12.05c0,7.29-7.66,7.17-7.66,7.17h-13.63c-8.18,0-7.92,7.79-7.92,7.79v6.53h-4.8s-8.04.5-8.04-13.58c0-14.08,9.22-13.07,9.22-13.07h19.2v-1.88h-13.75l-.02-6.27ZM43.71,28.29c0-1.32-1.11-2.4-2.47-2.4s-2.47,1.07-2.47,2.4,1.11,2.4,2.47,2.4,2.47-1.07,2.47-2.4Z"/>
    </g>
    <g class="st4">
      <path class="st3" d="M62.73,70.31s.9,6.05-13.5,6.05-13.89-7.29-13.89-7.29v-12.05c0-7.29,7.66-7.17,7.66-7.17h13.63c8.18,0,7.92-7.79,7.92-7.79v-6.53h4.8s8.04-.5,8.04,13.58-9.22,13.07-9.22,13.07h-19.2v1.88h13.75l.02,6.27ZM54.33,69.75c0,1.32,1.11,2.4,2.47,2.4s2.47-1.07,2.47-2.4-1.11-2.4-2.47-2.4-2.47,1.07-2.47,2.4Z"/>
    </g>
  </g>
  <path class="st2" d="M227.89,109.42c-16.07,0-29.11,12.94-29.11,28.89,0,12.77,8.34,23.6,19.91,27.43,1.45.27,1.99-.62,1.99-1.38,0-.69-.02-2.97-.03-5.38-8.1,1.75-9.8-3.41-9.8-3.41-1.32-3.35-3.23-4.22-3.23-4.22-2.65-1.78.2-1.75.2-1.75,2.92.21,4.46,2.98,4.46,2.98,2.59,4.42,6.81,3.14,8.47,2.41.25-1.86,1.02-3.14,1.84-3.86-6.47-.74-13.26-3.21-13.26-14.27,0-3.15,1.14-5.73,3-7.76-.31-.72-1.3-3.66.29-7.64,0,0,2.44-.77,8.01,2.97,2.32-.63,4.82-.96,7.28-.97,2.47,0,4.96.33,7.28.97,5.56-3.74,8-2.97,8-2.97,1.59,3.98.59,6.93.29,7.64,1.86,2.03,3,4.6,3,7.76,0,11.11-6.81,13.54-13.29,14.26,1.05.9,1.98,2.66,1.98,5.35,0,3.87-.03,6.97-.03,7.93,0,.77.53,1.67,2,1.38,11.56-3.82,19.88-14.65,19.88-27.42,0-15.95-13.02-28.89-29.11-28.89v-.03h0l-.02-.02ZM209.7,150.58c-.06.15-.3.18-.51.08s-.33-.3-.25-.43c.06-.15.3-.18.51-.08s.33.3.25.44h0ZM211.12,151.85c-.14.13-.4.07-.59-.14-.18-.2-.22-.46-.08-.6.15-.13.4-.07.6.14.18.21.23.46.08.6h-.01ZM212.1,153.47c-.18.13-.47,0-.66-.24-.18-.25-.18-.56,0-.69s.47,0,.66.24c.17.25.17.56,0,.7h0ZM213.76,155.35c-.16.17-.51.13-.75-.11-.25-.23-.32-.56-.16-.74.16-.17.51-.13.75.11.25.23.33.56.16.74ZM215.91,155.98c-.07.22-.39.33-.72.23s-.54-.37-.48-.59c.07-.23.39-.33.72-.23s.54.37.48.59ZM218.36,156.25c0,.23-.28.44-.61.44s-.62-.18-.64-.41c0-.24.28-.44.62-.44s.62.18.62.41h.01ZM220.76,156.16c.03.23-.2.46-.54.54-.33.06-.66-.08-.69-.32-.03-.23.21-.48.54-.54.35-.06.66.08.7.32h-.01Z"/>
</svg>