<?xml version="1.0" encoding="UTF-8"?>
<svg id="Layer_1" xmlns="http://www.w3.org/2000/svg" version="1.1" viewBox="0 0 98.04 98.04">
  <!-- Generator: Adobe Illustrator 30.0.0, SVG Export Plug-In . SVG Version: 2.1.1 Build 123)  -->
  <defs>
    <style>
      .st0 {
        fill: #0f1218;
      }

      .st1 {
        fill: #6e5aa6;
        fill-opacity: .5;
      }
    </style>
  </defs>
  <circle class="st0" cx="49.02" cy="49.02" r="49.02"/>
  <path class="st1" d="M66.98,40.31c-.58-.2-1.18-.38-1.8-.57.1-.41.2-.82.27-1.23,1.36-6.6.47-11.9-2.57-13.65-2.91-1.67-7.66.07-12.46,4.25-.46.4-.93.83-1.39,1.28-.31-.3-.62-.58-.93-.86-5.03-4.46-10.08-6.35-13.11-4.6-2.9,1.69-3.77,6.67-2.54,12.92.12.61.26,1.22.41,1.85-.72.2-1.4.42-2.06.64-5.9,2.06-9.67,5.28-9.67,8.63s4.04,6.92,10.19,9.03c.48.16.99.32,1.51.47-.17.68-.31,1.34-.43,1.98-1.17,6.14-.26,11.01,2.64,12.69,2.99,1.72,8.01-.05,12.91-4.33.38-.33.77-.69,1.17-1.07.51.48,1,.94,1.51,1.38,4.74,4.08,9.41,5.73,12.31,4.04,2.99-1.74,3.96-6.97,2.7-13.34-.1-.48-.21-.98-.33-1.49.35-.1.69-.21,1.04-.32,6.39-2.12,10.55-5.54,10.55-9.04s-3.89-6.61-9.91-8.68h-.02v.02ZM65.59,55.77c-.31.1-.62.2-.93.3-.71-2.23-1.66-4.61-2.83-7.07,1.12-2.39,2.02-4.74,2.72-6.96.57.16,1.13.33,1.66.52,5.16,1.77,8.31,4.4,8.31,6.42,0,2.16-3.4,4.95-8.92,6.78h-.01ZM63.29,60.31c.56,2.81.63,5.37.27,7.35-.33,1.79-1,2.99-1.82,3.46-1.76,1.02-5.52-.31-9.56-3.79-.46-.4-.93-.83-1.4-1.28,1.57-1.72,3.14-3.72,4.67-5.94,2.69-.24,5.25-.63,7.55-1.17.11.46.21.91.3,1.35h0v.02ZM40.14,70.95c-1.71.61-3.09.62-3.91.15-1.76-1.02-2.49-4.92-1.49-10.18.11-.6.25-1.22.41-1.85,2.28.51,4.81.87,7.51,1.09,1.54,2.17,3.16,4.17,4.79,5.91-.36.35-.71.67-1.07.98-2.16,1.88-4.33,3.24-6.24,3.91h0,.01ZM32.1,55.76c-2.72-.93-4.96-2.13-6.5-3.46-1.39-1.19-2.08-2.36-2.08-3.31,0-2.03,3.03-4.63,8.07-6.37.61-.21,1.25-.41,1.92-.61.69,2.27,1.61,4.64,2.72,7.04-1.12,2.43-2.05,4.85-2.75,7.14-.47-.14-.93-.29-1.38-.43ZM34.8,37.4c-1.04-5.36-.35-9.4,1.4-10.4,1.86-1.08,5.99.46,10.34,4.32.27.25.56.51.83.77-1.62,1.74-3.22,3.72-4.75,5.88-2.62.25-5.13.63-7.44,1.15-.15-.58-.27-1.15-.38-1.71h0ZM58.84,43.34c-.55-.95-1.12-1.88-1.7-2.79,1.77.22,3.48.52,5.08.89-.48,1.54-1.08,3.15-1.79,4.8-.51-.95-1.04-1.92-1.6-2.9h0ZM49.03,33.8c1.1,1.19,2.19,2.52,3.29,3.96-1.09-.05-2.19-.07-3.31-.07s-2.19.02-3.29.07c1.08-1.43,2.19-2.75,3.31-3.96ZM39.16,43.36c-.55.95-1.08,1.92-1.57,2.88-.69-1.65-1.29-3.26-1.77-4.82,1.59-.36,3.29-.64,5.06-.87-.58.92-1.15,1.85-1.71,2.8h0ZM40.92,57.59c-1.82-.21-3.55-.48-5.13-.83.5-1.59,1.1-3.24,1.81-4.92.5.97,1.03,1.92,1.57,2.89h0c.57.98,1.15,1.93,1.75,2.86h0ZM49.1,64.35c-1.13-1.22-2.26-2.57-3.36-4.02,1.07.04,2.16.06,3.26.06s2.26-.02,3.36-.07c-1.09,1.48-2.18,2.83-3.27,4.03h.01ZM60.47,51.75c.74,1.7,1.38,3.35,1.87,4.91-1.61.37-3.36.67-5.2.88.58-.92,1.15-1.86,1.71-2.84.57-.98,1.1-1.97,1.61-2.95h0ZM56.78,53.53c-.87,1.51-1.76,2.95-2.68,4.32-1.65.12-3.36.17-5.11.17s-3.42-.05-5.05-.16c-.94-1.38-1.86-2.83-2.73-4.32h0c-.87-1.49-1.66-3-2.38-4.49.72-1.5,1.51-3,2.37-4.49h0c.86-1.49,1.77-2.93,2.7-4.3,1.66-.12,3.36-.19,5.07-.19h0c1.72,0,3.42.06,5.08.19.92,1.36,1.82,2.8,2.69,4.29.88,1.51,1.67,3,2.41,4.48-.72,1.49-1.53,3-2.39,4.51h.02ZM61.71,26.93c1.87,1.08,2.59,5.42,1.43,11.11-.07.36-.16.73-.25,1.1-2.32-.53-4.82-.93-7.45-1.18-1.54-2.18-3.12-4.17-4.71-5.88.43-.41.86-.81,1.28-1.18,4.12-3.58,7.96-5,9.71-3.98h0ZM49.01,44c2.75,0,4.97,2.23,4.97,4.97s-2.23,4.97-4.97,4.97-4.97-2.23-4.97-4.97,2.23-4.97,4.97-4.97Z"/>
</svg>